# xmcd CD database file generated by LOLA_Freedb v0.9beta0
# 
# Track frame offsets:
#      150
#      16494
#      32239
#      45285
#      63678
#      85141
# 
# Disc length: 1361 seconds
# 
# Revision: 0 
# Processed by: cddbd v1.5.2PL0 Copyright (c) Steve Scherf et al.
# Submitted via: LOLA_Freedb v0.9beta0
# 
DISCID=45054f06
DTITLE=Jodie - Jodie Country Music
DYEAR=2000
DGENRE=
TTITLE0=Jodie - Mamas Don't Let your Babies
TTITLE1=Jodie - Here Some Love
TTITLE2=Jodie - Two More Bottles Of Wine
TTITLE3=Jodie - 16th Avenue
TTITLE4=Jodie - That Summer
TTITLE5=Jodie - When I Die ...
EXTD=
EXTT0=
EXTT1=
EXTT2=
EXTT3=
EXTT4=
EXTT5=
PLAYORDER=
